<svg width="627" height="629" viewBox="0 0 627 629" fill="none" xmlns="http://www.w3.org/2000/svg">
<g opacity="0.5" clip-path="url(#clip0_1_988)" filter="url(#filter0_f_1_988)">
<path d="M212.129 514.967C269.361 572.058 430.26 530.201 456.608 473.469C482.957 416.737 415.674 371.709 372.052 374.836C551.694 377.384 633.32 212.031 444.102 234.979C560.656 53.9973 406.488 55.6225 357.887 174.715C318.503 54.9911 210.411 181.567 240.463 291.761C175.745 187.21 31.8025 335.077 212.129 514.967Z" fill="#17C690"/>
<path opacity="0.75" d="M212.129 514.967C269.361 572.058 430.26 530.201 456.608 473.469C482.957 416.737 415.674 371.709 372.052 374.836C551.694 377.384 633.32 212.031 444.102 234.979C560.656 53.9973 406.488 55.6225 357.887 174.715C318.503 54.9911 210.411 181.567 240.463 291.761C175.745 187.21 31.8025 335.077 212.129 514.967Z" fill="#FFF983"/>
<path d="M212.129 514.967C269.361 572.058 430.26 530.201 456.608 473.469C482.957 416.737 415.674 371.709 372.052 374.836C551.694 377.384 633.32 212.031 444.102 234.979C560.656 53.9973 406.488 55.6225 357.887 174.715C318.503 54.9911 210.411 181.567 240.463 291.761C175.745 187.21 31.8025 335.077 212.129 514.967Z" fill="#0AA370" fill-opacity="0.09"/>
<path d="M382.161 415.303L382.722 408.708C382.472 408.68 357.077 406.456 331.92 404.415C306.412 402.347 293.194 401.301 286.174 401.052L361.711 275.273L361.724 277.878L448.218 277.819L448.198 271.201L364.121 271.26L437.907 148.397L432.232 144.988L334.283 308.085L313.373 216.878L306.923 218.342L329.373 316.261L247.771 452.14C245.107 444.058 239.41 428.816 227.851 399.155C216.569 370.191 204.977 341.164 204.865 340.873L198.71 343.311C215.095 384.276 241.001 450.487 243.231 459.699L152.359 611.013L158.034 614.422L282.275 407.545C292.028 407.676 346.068 412.134 382.146 415.294L382.161 415.303Z" fill="#377464"/>
<path d="M382.161 415.303L382.722 408.708C382.472 408.68 357.077 406.456 331.92 404.415C306.412 402.347 293.194 401.301 286.174 401.052L361.711 275.273L361.724 277.878L448.218 277.819L448.198 271.201L364.121 271.26L437.907 148.397L432.232 144.988L334.283 308.085L313.373 216.878L306.923 218.342L329.373 316.261L247.771 452.14C245.107 444.058 239.41 428.816 227.851 399.155C216.569 370.191 204.977 341.164 204.865 340.873L198.71 343.311C215.095 384.276 241.001 450.487 243.231 459.699L152.359 611.013L158.034 614.422L282.275 407.545C292.028 407.676 346.068 412.134 382.146 415.294L382.161 415.303Z" fill="#114C3A"/>
<g clip-path="url(#clip1_1_988)">
<path d="M431.065 403.509C435.962 383.273 417.425 382.674 411.402 383.769C379.498 312.292 351.945 329.62 338.255 347.772L431.065 403.509Z" fill="white"/>
<path d="M254.76 207.962L341.242 259.899C342.801 240.62 333.375 237.339 322.12 239.083C302.421 212.042 277.605 194.375 254.76 207.962Z" fill="white"/>
</g>
</g>
<defs>
<filter id="filter0_f_1_988" x="-64.9996" y="-65" width="757.476" height="838.977" filterUnits="userSpaceOnUse" color-interpolation-filters="sRGB">
<feFlood flood-opacity="0" result="BackgroundImageFix"/>
<feBlend mode="normal" in="SourceGraphic" in2="BackgroundImageFix" result="shape"/>
<feGaussianBlur stdDeviation="32.5" result="effect1_foregroundBlur_1_988"/>
</filter>
<clipPath id="clip0_1_988">
<rect width="368" height="606" fill="white" transform="translate(311.996) rotate(30.9871)"/>
</clipPath>
<clipPath id="clip1_1_988">
<rect width="251.82" height="94.62" fill="white" transform="translate(263.898 192.745) rotate(30.9871)"/>
</clipPath>
</defs>
</svg>
