<svg width="25" height="25" viewBox="0 0 25 25" fill="none" xmlns="http://www.w3.org/2000/svg">
<path fill-rule="evenodd" clip-rule="evenodd" d="M6.19981 1.0332H16.0489C16.6622 1.0332 17.2438 1.30563 17.6365 1.7768L22.2537 7.31742C22.5632 7.68882 22.7327 8.15697 22.7327 8.64043V19.6326C22.7327 21.9154 20.8822 23.7659 18.5994 23.7659H6.19981C3.91711 23.7659 2.0666 21.9154 2.0666 19.6326V5.16641C2.0666 2.8837 3.91711 1.0332 6.19981 1.0332ZM20.666 19.6326V9.29962H17.5661C16.4248 9.29962 15.4995 8.37437 15.4995 7.23302V3.09981H6.19981C5.05846 3.09981 4.13321 4.02506 4.13321 5.16641V19.6326C4.13321 20.774 5.05846 21.6993 6.19981 21.6993H18.5994C19.7408 21.6993 20.666 20.774 20.666 19.6326ZM19.4932 7.23302L17.5661 4.92054V7.23302H19.4932ZM8.26642 14.4661C7.69574 14.4661 7.23312 14.0035 7.23312 13.4328C7.23312 12.8622 7.69574 12.3995 8.26642 12.3995H16.5328C17.1035 12.3995 17.5661 12.8622 17.5661 13.4328C17.5661 14.0035 17.1035 14.4661 16.5328 14.4661H8.26642ZM8.26642 18.5993C7.69574 18.5993 7.23312 18.1367 7.23312 17.566C7.23312 16.9954 7.69574 16.5327 8.26642 16.5327H14.4662C15.0369 16.5327 15.4995 16.9954 15.4995 17.566C15.4995 18.1367 15.0369 18.5993 14.4662 18.5993H8.26642ZM8.26642 10.3329C7.69574 10.3329 7.23312 9.8703 7.23312 9.29962C7.23312 8.72895 7.69574 8.26632 8.26642 8.26632H11.3663C11.937 8.26632 12.3996 8.72895 12.3996 9.29962C12.3996 9.8703 11.937 10.3329 11.3663 10.3329H8.26642Z" fill="#045450"/>
</svg>
