<svg width="22" height="22" viewBox="0 0 22 22" fill="none" xmlns="http://www.w3.org/2000/svg">
<path fill-rule="evenodd" clip-rule="evenodd" d="M5.73896 10.9588H4.70566C2.42295 10.9588 0.572449 12.8093 0.572449 15.092V17.1586C0.572449 19.4413 2.42295 21.2918 4.70566 21.2918H5.73896C8.02167 21.2918 9.87217 19.4413 9.87217 17.1586V15.092C9.87217 12.8093 8.02167 10.9588 5.73896 10.9588ZM2.63905 15.092C2.63905 13.9506 3.5643 13.0254 4.70566 13.0254H5.73896C6.88032 13.0254 7.80557 13.9506 7.80557 15.092V17.1586C7.80557 18.2999 6.88032 19.2252 5.73896 19.2252H4.70566C3.5643 19.2252 2.63905 18.2999 2.63905 17.1586V15.092Z" fill="#92929D"/>
<path fill-rule="evenodd" clip-rule="evenodd" d="M7.80557 4.24229C7.80557 2.24492 6.18638 0.625732 4.18901 0.625732C2.19164 0.625732 0.572449 2.24492 0.572449 4.24229V5.27559C0.572449 7.27296 2.19164 8.89215 4.18901 8.89215C6.18638 8.89215 7.80557 7.27296 7.80557 5.27559V4.24229ZM2.63905 4.24229C2.63905 3.38628 3.33299 2.69234 4.18901 2.69234C5.04502 2.69234 5.73896 3.38628 5.73896 4.24229V5.27559C5.73896 6.13161 5.04502 6.82555 4.18901 6.82555C3.33299 6.82555 2.63905 6.13161 2.63905 5.27559V4.24229Z" fill="#92929D"/>
<path fill-rule="evenodd" clip-rule="evenodd" d="M17.1053 9.92545H16.072C13.7893 9.92545 11.9388 11.776 11.9388 14.0587V17.1586C11.9388 19.4413 13.7893 21.2918 16.072 21.2918H17.1053C19.388 21.2918 21.2385 19.4413 21.2385 17.1586V14.0587C21.2385 11.776 19.388 9.92545 17.1053 9.92545ZM14.0054 14.0587C14.0054 12.9173 14.9306 11.9921 16.072 11.9921H17.1053C18.2466 11.9921 19.1719 12.9173 19.1719 14.0587V17.1586C19.1719 18.2999 18.2466 19.2252 17.1053 19.2252H16.072C14.9306 19.2252 14.0054 18.2999 14.0054 17.1586V14.0587Z" fill="#92929D"/>
<path fill-rule="evenodd" clip-rule="evenodd" d="M17.6219 0.625732H13.4887C11.4914 0.625732 9.87217 2.24492 9.87217 4.24229C9.87217 6.23966 11.4914 7.85885 13.4887 7.85885H17.6219C19.6193 7.85885 21.2385 6.23966 21.2385 4.24229C21.2385 2.24492 19.6193 0.625732 17.6219 0.625732ZM11.9388 4.24229C11.9388 3.38628 12.6327 2.69234 13.4887 2.69234H17.6219C18.478 2.69234 19.1719 3.38628 19.1719 4.24229C19.1719 5.09831 18.478 5.79224 17.6219 5.79224H13.4887C12.6327 5.79224 11.9388 5.09831 11.9388 4.24229Z" fill="#92929D"/>
</svg>
