<svg width="26" height="25" viewBox="0 0 26 25" fill="none" xmlns="http://www.w3.org/2000/svg">
<path fill-rule="evenodd" clip-rule="evenodd" d="M18.2322 4.19698V3.16367C18.2322 2.593 18.6948 2.13037 19.2655 2.13037C19.8362 2.13037 20.2988 2.593 20.2988 3.16367V4.19698H21.3321C23.0441 4.19698 24.432 5.58485 24.432 7.29688L24.432 10.3968L24.432 12.4634L24.432 17.63C24.432 21.054 21.6563 23.8298 18.2322 23.8298H7.89917C4.4751 23.8298 1.69935 21.054 1.69935 17.63L1.69935 12.4634V7.29688C1.69935 5.58485 3.08722 4.19698 4.79926 4.19698H6.86586V3.16367C6.86586 2.593 7.32849 2.13037 7.89916 2.13037C8.46984 2.13037 8.93247 2.593 8.93247 3.16367V4.19698H18.2322ZM4.79926 6.26359L6.86586 6.26358C6.86586 6.83426 7.32849 7.29688 7.89916 7.29688C8.46984 7.29688 8.93247 6.83426 8.93247 6.26358H18.2322C18.2322 6.83426 18.6948 7.29688 19.2655 7.29688C19.8362 7.29688 20.2988 6.83426 20.2988 6.26358L21.3321 6.26359C21.9028 6.26359 22.3654 6.72622 22.3654 7.29689V10.3968H3.76596V7.29689C3.76596 6.72622 4.22858 6.26359 4.79926 6.26359ZM3.76596 12.4636V17.6301C3.76596 19.9128 5.61646 21.7633 7.89917 21.7633H18.2322C20.5149 21.7633 22.3654 19.9128 22.3654 17.6301V12.4636H3.76596Z" fill="#92929D"/>
</svg>
