<svg width="34" height="34" viewBox="0 0 34 34" fill="none" xmlns="http://www.w3.org/2000/svg">
<rect y="0.463379" width="33.0657" height="33.0657" rx="10.333" fill="#92929D"/>
<path d="M13.7949 15.9696C13.5345 15.4681 13.1728 15.092 12.7099 14.8412C12.247 14.5808 11.7117 14.4506 11.1041 14.4506C10.4387 14.4506 9.84559 14.6001 9.3248 14.8991C8.80402 15.1981 8.39414 15.6224 8.09517 16.1721C7.80585 16.7218 7.66119 17.3583 7.66119 18.0817C7.66119 18.805 7.80585 19.4463 8.09517 20.0057C8.39414 20.5554 8.80402 20.9797 9.3248 21.2787C9.84559 21.5777 10.4387 21.7271 11.1041 21.7271C12.0011 21.7271 12.7292 21.4764 13.2886 20.9749C13.8479 20.4734 14.1903 19.7935 14.3157 18.9352H10.54V17.6187H16.0805V18.9062C15.9744 19.6874 15.6948 20.4059 15.2415 21.0617C14.7979 21.7175 14.2144 22.2431 13.4911 22.6385C12.7774 23.0243 11.9818 23.2172 11.1041 23.2172C10.159 23.2172 9.29587 23.0002 8.51469 22.5662C7.73352 22.1226 7.11147 21.5102 6.64855 20.729C6.19527 19.9478 5.96864 19.0654 5.96864 18.0817C5.96864 17.098 6.19527 16.2155 6.64855 15.4343C7.11147 14.6532 7.73352 14.0456 8.51469 13.6116C9.30551 13.168 10.1687 12.9461 11.1041 12.9461C12.1747 12.9461 13.1246 13.2114 13.954 13.7418C14.793 14.2626 15.4006 15.0052 15.7767 15.9696H13.7949ZM22.2929 23.2316C21.3574 23.2316 20.4942 23.0146 19.7034 22.5807C18.9222 22.137 18.3002 21.5246 17.8373 20.7434C17.384 19.9526 17.1574 19.0654 17.1574 18.0817C17.1574 17.098 17.384 16.2155 17.8373 15.4343C18.3002 14.6532 18.9222 14.0456 19.7034 13.6116C20.4942 13.168 21.3574 12.9461 22.2929 12.9461C23.238 12.9461 24.1012 13.168 24.8823 13.6116C25.6732 14.0456 26.2952 14.6532 26.7485 15.4343C27.2018 16.2155 27.4284 17.098 27.4284 18.0817C27.4284 19.0654 27.2018 19.9526 26.7485 20.7434C26.2952 21.5246 25.6732 22.137 24.8823 22.5807C24.1012 23.0146 23.238 23.2316 22.2929 23.2316ZM22.2929 21.7995C22.9583 21.7995 23.5514 21.65 24.0722 21.351C24.593 21.0424 24.9981 20.6084 25.2874 20.0491C25.5864 19.4801 25.7358 18.8243 25.7358 18.0817C25.7358 17.3391 25.5864 16.6881 25.2874 16.1287C24.9981 15.5694 24.593 15.1402 24.0722 14.8412C23.5514 14.5422 22.9583 14.3928 22.2929 14.3928C21.6274 14.3928 21.0343 14.5422 20.5135 14.8412C19.9927 15.1402 19.5829 15.5694 19.2839 16.1287C18.9946 16.6881 18.8499 17.3391 18.8499 18.0817C18.8499 18.8243 18.9946 19.4801 19.2839 20.0491C19.5829 20.6084 19.9927 21.0424 20.5135 21.351C21.0343 21.65 21.6274 21.7995 22.2929 21.7995Z" fill="#E7E9E4"/>
</svg>
