<svg width="34" height="34" viewBox="0 0 34 34" fill="none" xmlns="http://www.w3.org/2000/svg">
<rect x="0.332031" y="0.529053" width="33.0657" height="33.0657" rx="10.333" fill="#92929D"/>
<path d="M15.215 13.142V20.3896C15.215 21.2865 14.9402 21.9953 14.3905 22.5161C13.8504 23.0369 13.1367 23.2973 12.2495 23.2973C11.3622 23.2973 10.6437 23.0369 10.094 22.5161C9.55391 21.9953 9.28388 21.2865 9.28388 20.3896H10.9475C10.9571 20.8332 11.068 21.1852 11.2802 21.4456C11.502 21.706 11.8251 21.8362 12.2495 21.8362C12.6738 21.8362 12.9969 21.706 13.2187 21.4456C13.4405 21.1756 13.5514 20.8236 13.5514 20.3896V13.142H15.215ZM24.9284 16.1365C24.9284 16.6477 24.8079 17.1299 24.5668 17.5831C24.3257 18.0364 23.9399 18.4077 23.4095 18.697C22.879 18.9767 22.1991 19.1166 21.3697 19.1166H19.547V23.196H17.8978V13.142H21.3697C22.1413 13.142 22.7923 13.277 23.3227 13.5471C23.8628 13.8075 24.263 14.1643 24.5234 14.6176C24.7934 15.0708 24.9284 15.5772 24.9284 16.1365ZM21.3697 17.7712C21.9966 17.7712 22.4643 17.6314 22.773 17.3517C23.0816 17.0624 23.2359 16.6573 23.2359 16.1365C23.2359 15.0371 22.6138 14.4874 21.3697 14.4874H19.547V17.7712H21.3697Z" fill="#E7E9E4"/>
</svg>
