<svg width="26" height="24" viewBox="0 0 26 24" fill="none" xmlns="http://www.w3.org/2000/svg">
<path fill-rule="evenodd" clip-rule="evenodd" d="M4.57629 4H21.3627C23.101 4 24.5102 5.34315 24.5102 7V7.42743C24.5103 7.43617 24.5103 7.44489 24.5102 7.45362V18C24.5102 19.6569 23.101 21 21.3627 21H4.57629C2.838 21 1.42883 19.6569 1.42883 18V7.45358C1.42871 7.44488 1.42871 7.43618 1.42883 7.42747V7C1.42883 5.34315 2.838 4 4.57629 4ZM3.52714 9.36205V18C3.52714 18.5523 3.99686 19 4.57629 19H21.3627C21.9422 19 22.4119 18.5523 22.4119 18V9.36205L14.7745 14.4578C13.6907 15.1809 12.2483 15.1809 11.1646 14.4578L3.52714 9.36205ZM22.4088 6.9228L13.5712 12.8193C13.2099 13.0603 12.7291 13.0603 12.3679 12.8193L3.53022 6.9228C3.57157 6.40659 4.02411 6 4.57629 6H21.3627C21.9149 6 22.3674 6.40659 22.4088 6.9228Z" fill="#171725"/>
</svg>
