<svg width="38" height="23" viewBox="0 0 38 23" fill="none" xmlns="http://www.w3.org/2000/svg">
<g clip-path="url(#clip0_16_14)">
<rect x="0.762054" y="0.166504" width="37.1989" height="22.7327" rx="11.3663" fill="#045450"/>
<path d="M12.1112 5.92526V16.2664H10.8044V7.55695L8.16973 8.5176V7.33798L11.9064 5.92526H12.1112ZM22.7958 15.1927V16.2664H16.0642V15.3269L19.4335 11.5761C19.8479 11.1146 20.1681 10.7238 20.3942 10.4036C20.6249 10.0787 20.785 9.78904 20.8745 9.53476C20.9687 9.27576 21.0158 9.01205 21.0158 8.74363C21.0158 8.40458 20.9451 8.09849 20.8039 7.82537C20.6673 7.54753 20.4648 7.32621 20.1964 7.16139C19.928 6.99657 19.6031 6.91416 19.2216 6.91416C18.7648 6.91416 18.3834 7.00364 18.0773 7.18258C17.7759 7.35681 17.5499 7.60169 17.3992 7.91719C17.2485 8.2327 17.1732 8.5953 17.1732 9.00499H15.8664C15.8664 8.42577 15.9936 7.896 16.2479 7.41568C16.5021 6.93535 16.8789 6.55392 17.378 6.27138C17.8772 5.98412 18.4917 5.8405 19.2216 5.8405C19.8715 5.8405 20.4271 5.95587 20.8886 6.18661C21.3501 6.41265 21.7033 6.73286 21.9482 7.14726C22.1977 7.55695 22.3225 8.03727 22.3225 8.58823C22.3225 8.88961 22.2707 9.1957 22.1671 9.5065C22.0683 9.81259 21.9293 10.1187 21.7504 10.4248C21.5762 10.7309 21.3713 11.0322 21.1359 11.3289C20.9051 11.6256 20.6579 11.9175 20.3942 12.2048L17.6394 15.1927H22.7958ZM30.7538 10.3047V11.8728C30.7538 12.7157 30.6785 13.4268 30.5278 14.006C30.3771 14.5852 30.1605 15.0514 29.878 15.4046C29.5954 15.7578 29.254 16.0144 28.8537 16.1745C28.4582 16.3299 28.0108 16.4076 27.5117 16.4076C27.1161 16.4076 26.7511 16.3582 26.4168 16.2593C26.0825 16.1604 25.7811 16.0027 25.5127 15.786C25.249 15.5647 25.0229 15.2775 24.8346 14.9243C24.6462 14.5711 24.5026 14.1426 24.4037 13.6387C24.3048 13.1348 24.2553 12.5462 24.2553 11.8728V10.3047C24.2553 9.46176 24.3307 8.75541 24.4814 8.18561C24.6368 7.61581 24.8557 7.15903 25.1383 6.81527C25.4208 6.4668 25.7599 6.21722 26.1554 6.06653C26.5557 5.91584 27.0031 5.8405 27.4975 5.8405C27.8978 5.8405 28.2651 5.88994 28.5994 5.98883C28.9385 6.08301 29.2399 6.23606 29.5036 6.44797C29.7673 6.65516 29.991 6.933 30.1746 7.28147C30.363 7.62523 30.5066 8.04669 30.6055 8.54585C30.7044 9.04501 30.7538 9.63129 30.7538 10.3047ZM29.44 12.0847V10.0857C29.44 9.62423 29.4118 9.21925 29.3553 8.87078C29.3035 8.5176 29.2258 8.21622 29.1222 7.96664C29.0186 7.71706 28.8867 7.51457 28.7266 7.35917C28.5712 7.20377 28.3899 7.09075 28.1827 7.02012C27.9802 6.94477 27.7518 6.9071 27.4975 6.9071C27.1867 6.9071 26.9113 6.96596 26.6711 7.08369C26.4309 7.19671 26.2284 7.37801 26.0636 7.62759C25.9035 7.87717 25.7811 8.20445 25.6963 8.60942C25.6115 9.0144 25.5692 9.5065 25.5692 10.0857V12.0847C25.5692 12.5462 25.5951 12.9535 25.6469 13.3067C25.7034 13.6599 25.7858 13.966 25.8941 14.225C26.0024 14.4793 26.1343 14.6888 26.2897 14.8536C26.4451 15.0185 26.624 15.1409 26.8265 15.2209C27.0337 15.2963 27.2621 15.334 27.5117 15.334C27.8319 15.334 28.1121 15.2727 28.3522 15.1503C28.5924 15.0279 28.7925 14.8372 28.9526 14.5782C29.1174 14.3145 29.2399 13.9778 29.3199 13.5681C29.4 13.1537 29.44 12.6592 29.44 12.0847Z" fill="#E7E9E4"/>
</g>
<defs>
<clipPath id="clip0_16_14">
<rect width="37.1989" height="22.7327" fill="white" transform="translate(0.762054 0.166504)"/>
</clipPath>
</defs>
</svg>
