<svg width="26" height="24" viewBox="0 0 26 24" fill="none" xmlns="http://www.w3.org/2000/svg">
<path fill-rule="evenodd" clip-rule="evenodd" d="M7.75061 8.92373V7.09416C7.75061 4.28375 10.1171 2 13.0435 2C15.9699 2 18.3364 4.28375 18.3364 7.09416V8.92373H19.8345C20.686 8.92373 21.3627 9.58962 21.3627 10.3957V20.528C21.3627 21.3341 20.686 22 19.8345 22H6.10456C5.25304 22 4.57629 21.3341 4.57629 20.528V10.3957C4.57629 9.58962 5.25304 8.92373 6.10456 8.92373H7.75061ZM6.48867 10.7419V20.1818H19.4504V10.7419H6.48867ZM16.424 8.89571V7.09416C16.424 5.28188 14.9073 3.81818 13.0435 3.81818C11.1797 3.81818 9.66298 5.28188 9.66298 7.09416V8.89571H16.424Z" fill="#171725"/>
</svg>
