<svg width="24" height="24" viewBox="0 0 24 24" fill="none" xmlns="http://www.w3.org/2000/svg">
<path fill-rule="evenodd" clip-rule="evenodd" d="M12.0657 6.56603C10.3536 6.56603 8.96577 5.17815 8.96577 3.46612C8.96577 1.75409 10.3536 0.366211 12.0657 0.366211C13.7777 0.366211 15.1656 1.75409 15.1656 3.46612C15.1656 5.17815 13.7777 6.56603 12.0657 6.56603ZM12.0657 4.49942C12.6364 4.49942 13.099 4.0368 13.099 3.46612C13.099 2.89544 12.6364 2.43282 12.0657 2.43282C11.495 2.43282 11.0324 2.89544 11.0324 3.46612C11.0324 4.0368 11.495 4.49942 12.0657 4.49942ZM11.0324 6.56603H13.099C14.811 6.56603 16.1989 7.9539 16.1989 9.66593V10.6992C16.1989 12.4113 14.811 13.7991 13.099 13.7991H11.0324C9.32034 13.7991 7.93247 12.4113 7.93247 10.6992V9.66593C7.93247 7.9539 9.32034 6.56603 11.0324 6.56603ZM11.0324 8.63263C10.4617 8.63263 9.99907 9.09526 9.99907 9.66593V10.6992C9.99907 11.2699 10.4617 11.7325 11.0324 11.7325H13.099C13.6697 11.7325 14.1323 11.2699 14.1323 10.6992V9.66593C14.1323 9.09526 13.6697 8.63263 13.099 8.63263H11.0324ZM19.2988 15.8657C17.5868 15.8657 16.1989 14.4779 16.1989 12.7658C16.1989 11.0538 17.5868 9.66593 19.2988 9.66593C21.0108 9.66593 22.3987 11.0538 22.3987 12.7658C22.3987 14.4779 21.0108 15.8657 19.2988 15.8657ZM19.2988 13.7991C19.8695 13.7991 20.3321 13.3365 20.3321 12.7658C20.3321 12.1952 19.8695 11.7325 19.2988 11.7325C18.7281 11.7325 18.2655 12.1952 18.2655 12.7658C18.2655 13.3365 18.7281 13.7991 19.2988 13.7991ZM18.2655 15.8657H20.3321C22.0441 15.8657 23.432 17.2536 23.432 18.9657V19.999C23.432 21.711 22.0441 23.0989 20.3321 23.0989H18.2655C16.5535 23.0989 15.1656 21.711 15.1656 19.999V18.9657C15.1656 17.2536 16.5535 15.8657 18.2655 15.8657ZM18.2655 17.9324C17.6948 17.9324 17.2322 18.395 17.2322 18.9657V19.999C17.2322 20.5696 17.6948 21.0323 18.2655 21.0323H20.3321C20.9028 21.0323 21.3654 20.5696 21.3654 19.999V18.9657C21.3654 18.395 20.9028 17.9324 20.3321 17.9324H18.2655ZM4.83256 15.8657C3.12053 15.8657 1.73265 14.4779 1.73265 12.7658C1.73265 11.0538 3.12053 9.66593 4.83256 9.66593C6.54459 9.66593 7.93247 11.0538 7.93247 12.7658C7.93247 14.4779 6.54459 15.8657 4.83256 15.8657ZM4.83256 13.7991C5.40324 13.7991 5.86586 13.3365 5.86586 12.7658C5.86586 12.1952 5.40324 11.7325 4.83256 11.7325C4.26188 11.7325 3.79926 12.1952 3.79926 12.7658C3.79926 13.3365 4.26188 13.7991 4.83256 13.7991ZM3.79926 15.8657H5.86586C7.57789 15.8657 8.96577 17.2536 8.96577 18.9657V19.999C8.96577 21.711 7.57789 23.0989 5.86586 23.0989H3.79926C2.08722 23.0989 0.699348 21.711 0.699348 19.999V18.9657C0.699348 17.2536 2.08722 15.8657 3.79926 15.8657ZM3.79926 17.9324C3.22858 17.9324 2.76595 18.395 2.76595 18.9657V19.999C2.76595 20.5696 3.22858 21.0323 3.79926 21.0323H5.86586C6.43654 21.0323 6.89916 20.5696 6.89916 19.999V18.9657C6.89916 18.395 6.43654 17.9324 5.86586 17.9324H3.79926Z" fill="#92929D"/>
</svg>
