<svg width="26" height="26" viewBox="0 0 26 26" fill="none" xmlns="http://www.w3.org/2000/svg">
<path fill-rule="evenodd" clip-rule="evenodd" d="M6.86586 1.63379H16.7149C17.3282 1.63379 17.9099 1.90622 18.3025 2.37739L22.9197 7.91801C23.2292 8.2894 23.3987 8.75756 23.3987 9.24101V20.2332C23.3987 22.5159 21.5482 24.3664 19.2655 24.3664H6.86586C4.58315 24.3664 2.73265 22.5159 2.73265 20.2332V5.767C2.73265 3.48429 4.58315 1.63379 6.86586 1.63379ZM21.3321 20.2332V9.90021H18.2322C17.0908 9.90021 16.1656 8.97496 16.1656 7.8336V3.70039H6.86586C5.72451 3.70039 4.79926 4.62564 4.79926 5.767V20.2332C4.79926 21.3746 5.72451 22.2998 6.86586 22.2998H19.2655C20.4068 22.2998 21.3321 21.3746 21.3321 20.2332ZM20.1593 7.8336L18.2322 5.52112V7.8336H20.1593ZM8.93247 15.0667C8.36179 15.0667 7.89916 14.6041 7.89916 14.0334C7.89916 13.4627 8.36179 13.0001 8.93247 13.0001H17.1989C17.7696 13.0001 18.2322 13.4627 18.2322 14.0334C18.2322 14.6041 17.7696 15.0667 17.1989 15.0667H8.93247ZM8.93247 19.1999C8.36179 19.1999 7.89916 18.7373 7.89916 18.1666C7.89916 17.596 8.36179 17.1333 8.93247 17.1333H15.1323C15.703 17.1333 16.1656 17.596 16.1656 18.1666C16.1656 18.7373 15.703 19.1999 15.1323 19.1999H8.93247ZM8.93247 10.9335C8.36179 10.9335 7.89916 10.4709 7.89916 9.90021C7.89916 9.32953 8.36179 8.86691 8.93247 8.86691H12.0324C12.6031 8.86691 13.0657 9.32953 13.0657 9.90021C13.0657 10.4709 12.6031 10.9335 12.0324 10.9335H8.93247Z" fill="#92929D"/>
</svg>
