<svg width="32" height="32" viewBox="0 0 32 32" fill="none" xmlns="http://www.w3.org/2000/svg">
<rect x="0.5" y="0.5" width="31" height="31" rx="7.5" stroke="#E2E8F0"/>
<path d="M16.8334 15.9999C16.8334 15.5397 16.4603 15.1666 16.0001 15.1666C15.5398 15.1666 15.1667 15.5397 15.1667 15.9999C15.1667 16.4602 15.5398 16.8333 16.0001 16.8333C16.4603 16.8333 16.8334 16.4602 16.8334 15.9999Z" stroke="#718096" stroke-width="2" stroke-linecap="round" stroke-linejoin="round"/>
<path d="M22.6667 15.9999C22.6667 15.5397 22.2936 15.1666 21.8333 15.1666C21.3731 15.1666 21 15.5397 21 15.9999C21 16.4602 21.3731 16.8333 21.8333 16.8333C22.2936 16.8333 22.6667 16.4602 22.6667 15.9999Z" stroke="#718096" stroke-width="2" stroke-linecap="round" stroke-linejoin="round"/>
<path d="M11 15.9999C11 15.5397 10.6269 15.1666 10.1667 15.1666C9.70647 15.1666 9.33337 15.5397 9.33337 15.9999C9.33337 16.4602 9.70647 16.8333 10.1667 16.8333C10.6269 16.8333 11 16.4602 11 15.9999Z" stroke="#718096" stroke-width="2" stroke-linecap="round" stroke-linejoin="round"/>
</svg>
